<svg width="24" height="18" viewBox="0 0 24 18" fill="none" xmlns="http://www.w3.org/2000/svg">
<path d="M23.4003 15.75C23.4003 17.0217 22.422 18 21.171 18H7.72409C6.82319 18 5.34089 17.4213 4.44269 16.1253L0.433187 10.5003C0.143387 10.1367 0.0173866 9.5859 0.0398866 9H0.00568663C-0.0177134 8.4141 0.109187 7.8642 0.398987 7.4997L4.41569 1.8747C5.31389 0.5787 6.79889 0 7.70159 0H21.171C22.3527 0 23.4003 0.9783 23.4003 2.25L23.4012 9L23.4003 15.75ZM18.588 6.0588C18.9471 5.6997 18.9471 5.1165 18.5889 4.7574C18.2307 4.3983 17.6493 4.3974 17.2911 4.7574L14.3868 7.6698L11.4825 4.7556C11.1243 4.3965 10.5438 4.3965 10.1856 4.7556C9.82739 5.1147 9.82739 5.6979 10.1856 6.057L13.089 8.9712L10.1559 11.9124C9.79769 12.2724 9.79679 12.8547 10.155 13.2138C10.5132 13.5738 11.0946 13.5738 11.4528 13.2138L14.3859 10.2726L17.319 13.2156C17.6772 13.5747 18.2577 13.5747 18.6159 13.2156C18.9741 12.8565 18.9741 12.2733 18.6159 11.9142L15.6837 8.9712L18.588 6.0588Z" fill="white"/>
</svg>
