<svg width="20" height="20" viewBox="0 0 20 20" fill="none" xmlns="http://www.w3.org/2000/svg">
<g id="ic_tip_round">
<path id="Shape" fill-rule="evenodd" clip-rule="evenodd" d="M10 0C15.5188 0 20 4.48125 20 10C20 15.5188 15.5188 20 10 20C4.48125 20 0 15.5188 0 10C0 4.48125 4.48125 0 10 0ZM8.705 14.3475C8.705 15.0512 9.2775 15.6237 9.98125 15.6237C10.685 15.6237 11.2575 15.0512 11.2575 14.3475C11.2575 13.6438 10.685 13.0712 9.98125 13.0712C9.2775 13.0712 8.705 13.6438 8.705 14.3475ZM10.145 4.40125C7.985 4.40125 6.74 6.2175 6.74 7.10125C6.74 7.49375 6.95375 8.11625 7.6575 8.11625C8.1975 8.11625 8.5575 7.72375 8.57375 7.38C8.6225 7.03625 8.9825 6.25 10.08 6.25C10.865 6.25 11.585 6.80625 11.585 7.49375C11.585 8.86875 8.90125 8.97875 8.90125 11.0087C8.90125 11.6962 9.37625 12.1875 9.965 12.1875C10.5862 12.1875 11.0612 11.6962 11.0612 11.0737C11.0612 9.97375 13.6475 9.80125 13.6475 7.445C13.6475 5.72625 12.06 4.40125 10.145 4.40125Z" fill="white"/>
</g>
</svg>
